STARTFONT 2.1
FONT -Pixel UA+EN-
SIZE 12 100 100
FONTBOUNDINGBOX 11 10 1 1
COMMENT "Designed by legeat for use with RGB matrix"
STARTPROPERTIES 30
FOUNDRY "FontForge"
FAMILY_NAME "Pixel Text"
WEIGHT_NAME "Bold"
SLANT "R"
SETWIDTH_NAME "Normal"
ADD_STYLE_NAME ""
PIXEL_SIZE 17
POINT_SIZE 120
RESOLUTION_X 100
RESOLUTION_Y 100
SPACING "P"
AVERAGE_WIDTH 102
CHARSET_REGISTRY "ISO10646"
CHARSET_ENCODING "1"
FONTNAME_REGISTRY ""
CHARSET_COLLECTIONS "ISO8859-5 ISO10646-1"
FONT_NAME "BellotaText-Bold"
FACE_NAME "Bellota Text Bold"
FONT_VERSION "001.000"
FONT_ASCENT 13
FONT_DESCENT 4
UNDERLINE_POSITION 0
UNDERLINE_THICKNESS 1
X_HEIGHT 8
CAP_HEIGHT 12
RAW_ASCENT 809
RAW_DESCENT 191
AVG_LOWERCASE_WIDTH 97
AVG_UPPERCASE_WIDTH 121
ENDPROPERTIES
CHARS 167
STARTCHAR space
ENCODING 32
SWIDTH 575 0
DWIDTH 6 0
BBX 1 1 5 3
BITMAP
00
ENDCHAR
STARTCHAR exclam
ENCODING 33
SWIDTH 575 0
DWIDTH 2 0
BBX 1 7 5 3
BITMAP
80
80
80
80
80
00
80
ENDCHAR
STARTCHAR quotedbl
ENCODING 34
SWIDTH 575 0
DWIDTH 4 0
BBX 3 2 4 8
BITMAP
A0
A0
ENDCHAR
STARTCHAR numbersign
ENCODING 35
SWIDTH 575 0
DWIDTH 6 0
BBX 5 7 3 3
BITMAP
50
50
F8
50
F8
50
50
ENDCHAR
STARTCHAR dollar
ENCODING 36
SWIDTH 575 0
DWIDTH 6 0
BBX 5 7 3 3
BITMAP
20
78
80
70
08
F0
20
ENDCHAR
STARTCHAR percent
ENCODING 37
SWIDTH 575 0
DWIDTH 6 0
BBX 5 7 3 3
BITMAP
C8
C8
10
20
40
98
98
ENDCHAR
STARTCHAR ampersand
ENCODING 38
SWIDTH 575 0
DWIDTH 6 0
BBX 5 7 3 3
BITMAP
40
A0
A0
40
A8
90
68
ENDCHAR
STARTCHAR quotesingle
ENCODING 39
SWIDTH 575 0
DWIDTH 2 0
BBX 1 3 3 7
BITMAP
80
80
80
ENDCHAR
STARTCHAR parenleft
ENCODING 40
SWIDTH 575 0
DWIDTH 4 0
BBX 3 7 3 3
BITMAP
20
40
80
80
80
40
20
ENDCHAR
STARTCHAR parenright
ENCODING 41
SWIDTH 575 0
DWIDTH 4 0
BBX 3 7 5 3
BITMAP
80
40
20
20
20
40
80
ENDCHAR
STARTCHAR asterisk
ENCODING 42
SWIDTH 575 0
DWIDTH 6 0
BBX 5 5 3 4
BITMAP
20
A8
70
A8
20
ENDCHAR
STARTCHAR plus
ENCODING 43
SWIDTH 575 0
DWIDTH 6 0
BBX 5 5 3 4
BITMAP
20
20
F8
20
20
ENDCHAR
STARTCHAR comma
ENCODING 44
SWIDTH 575 0
DWIDTH 3 0
BBX 2 3 3 1
BITMAP
C0
40
80
ENDCHAR
STARTCHAR hyphen
ENCODING 45
SWIDTH 575 0
DWIDTH 6 0
BBX 5 1 3 6
BITMAP
F8
ENDCHAR
STARTCHAR period
ENCODING 46
SWIDTH 575 0
DWIDTH 6 0
BBX 2 2 3 3
BITMAP
C0
C0
ENDCHAR
STARTCHAR slash
ENCODING 47
SWIDTH 575 0
DWIDTH 6 0
BBX 5 7 3 3
BITMAP
08
08
10
20
40
80
80
ENDCHAR
STARTCHAR zero
ENCODING 48
SWIDTH 575 0
DWIDTH 6 0
BBX 5 7 3 3
BITMAP
70
88
88
A8
88
88
70
ENDCHAR
STARTCHAR one
ENCODING 49
SWIDTH 575 0
DWIDTH 6 0
BBX 3 7 4 3
BITMAP
40
C0
40
40
40
40
E0
ENDCHAR
STARTCHAR two
ENCODING 50
SWIDTH 575 0
DWIDTH 6 0
BBX 5 7 3 3
BITMAP
70
88
08
70
80
80
F8
ENDCHAR
STARTCHAR three
ENCODING 51
SWIDTH 575 0
DWIDTH 6 0
BBX 5 7 3 3
BITMAP
70
88
08
70
08
88
70
ENDCHAR
STARTCHAR four
ENCODING 52
SWIDTH 575 0
DWIDTH 6 0
BBX 5 7 3 3
BITMAP
10
30
50
F8
10
10
10
ENDCHAR
STARTCHAR five
ENCODING 53
SWIDTH 575 0
DWIDTH 6 0
BBX 5 7 3 3
BITMAP
F8
80
F0
08
08
88
70
ENDCHAR
STARTCHAR six
ENCODING 54
SWIDTH 575 0
DWIDTH 6 0
BBX 5 7 3 3
BITMAP
70
80
80
F0
88
88
70
ENDCHAR
STARTCHAR seven
ENCODING 55
SWIDTH 575 0
DWIDTH 6 0
BBX 5 7 3 3
BITMAP
F8
08
10
20
40
80
80
ENDCHAR
STARTCHAR eight
ENCODING 56
SWIDTH 575 0
DWIDTH 6 0
BBX 5 7 3 3
BITMAP
70
88
88
70
88
88
70
ENDCHAR
STARTCHAR nine
ENCODING 57
SWIDTH 575 0
DWIDTH 6 0
BBX 5 7 3 3
BITMAP
70
88
88
78
08
08
70
ENDCHAR
STARTCHAR colon
ENCODING 58
SWIDTH 575 0
DWIDTH 3 0
BBX 2 5 3 4
BITMAP
C0
C0
00
C0
C0
ENDCHAR
STARTCHAR semicolon
ENCODING 59
SWIDTH 575 0
DWIDTH 3 0
BBX 2 7 4 3
BITMAP
C0
C0
00
C0
C0
40
80
ENDCHAR
STARTCHAR less
ENCODING 60
SWIDTH 575 0
DWIDTH 5 0
BBX 4 7 3 3
BITMAP
10
20
40
80
40
20
10
ENDCHAR
STARTCHAR equal
ENCODING 61
SWIDTH 575 0
DWIDTH 6 0
BBX 5 3 3 5
BITMAP
F8
00
F8
ENDCHAR
STARTCHAR greater
ENCODING 62
SWIDTH 575 0
DWIDTH 6 0
BBX 4 7 4 3
BITMAP
80
40
20
10
20
40
80
ENDCHAR
STARTCHAR question
ENCODING 63
SWIDTH 575 0
DWIDTH 5 0
BBX 4 7 3 3
BITMAP
60
90
10
20
20
00
20
ENDCHAR
STARTCHAR at
ENCODING 64
SWIDTH 575 0
DWIDTH 6 0
BBX 5 7 3 3
BITMAP
70
88
08
68
A8
A8
70
ENDCHAR
STARTCHAR A
ENCODING 65
SWIDTH 575 0
DWIDTH 6 0
BBX 5 7 3 3
BITMAP
20
50
88
88
F8
88
88
ENDCHAR
STARTCHAR B
ENCODING 66
SWIDTH 575 0
DWIDTH 6 0
BBX 5 7 3 3
BITMAP
F0
88
88
F0
88
88
F0
ENDCHAR
STARTCHAR C
ENCODING 67
SWIDTH 575 0
DWIDTH 6 0
BBX 5 7 3 3
BITMAP
70
88
80
80
80
88
70
ENDCHAR
STARTCHAR D
ENCODING 68
SWIDTH 575 0
DWIDTH 6 0
BBX 5 7 3 3
BITMAP
F0
88
88
88
88
88
F0
ENDCHAR
STARTCHAR E
ENCODING 69
SWIDTH 575 0
DWIDTH 6 0
BBX 5 7 3 3
BITMAP
F8
80
80
F0
80
80
F8
ENDCHAR
STARTCHAR F
ENCODING 70
SWIDTH 575 0
DWIDTH 6 0
BBX 5 7 3 3
BITMAP
F8
80
80
F0
80
80
80
ENDCHAR
STARTCHAR G
ENCODING 71
SWIDTH 575 0
DWIDTH 6 0
BBX 5 7 3 3
BITMAP
70
88
80
B8
88
88
70
ENDCHAR
STARTCHAR H
ENCODING 72
SWIDTH 575 0
DWIDTH 6 0
BBX 5 7 3 3
BITMAP
88
88
88
F8
88
88
88
ENDCHAR
STARTCHAR I
ENCODING 73
SWIDTH 575 0
DWIDTH 4 0
BBX 3 7 4 3
BITMAP
E0
40
40
40
40
40
E0
ENDCHAR
STARTCHAR J
ENCODING 74
SWIDTH 575 0
DWIDTH 6 0
BBX 5 7 3 3
BITMAP
38
10
10
10
10
90
60
ENDCHAR
STARTCHAR K
ENCODING 75
SWIDTH 575 0
DWIDTH 6 0
BBX 5 7 3 3
BITMAP
88
90
A0
C0
A0
90
88
ENDCHAR
STARTCHAR L
ENCODING 76
SWIDTH 575 0
DWIDTH 6 0
BBX 5 7 3 3
BITMAP
80
80
80
80
80
80
F8
ENDCHAR
STARTCHAR M
ENCODING 77
SWIDTH 575 0
DWIDTH 6 0
BBX 5 7 3 3
BITMAP
88
D8
A8
A8
88
88
88
ENDCHAR
STARTCHAR N
ENCODING 78
SWIDTH 575 0
DWIDTH 6 0
BBX 5 7 3 3
BITMAP
88
C8
A8
98
88
88
88
ENDCHAR
STARTCHAR O
ENCODING 79
SWIDTH 575 0
DWIDTH 6 0
BBX 5 7 3 3
BITMAP
70
88
88
88
88
88
70
ENDCHAR
STARTCHAR P
ENCODING 80
SWIDTH 575 0
DWIDTH 6 0
BBX 5 7 3 3
BITMAP
F0
88
88
F0
80
80
80
ENDCHAR
STARTCHAR Q
ENCODING 81
SWIDTH 575 0
DWIDTH 6 0
BBX 5 7 3 3
BITMAP
70
88
88
88
A8
90
68
ENDCHAR
STARTCHAR R
ENCODING 82
SWIDTH 575 0
DWIDTH 6 0
BBX 5 7 3 3
BITMAP
F0
88
88
F0
A0
90
88
ENDCHAR
STARTCHAR S
ENCODING 83
SWIDTH 575 0
DWIDTH 6 0
BBX 5 7 3 3
BITMAP
70
88
80
70
08
88
70
ENDCHAR
STARTCHAR T
ENCODING 84
SWIDTH 575 0
DWIDTH 6 0
BBX 5 7 3 3
BITMAP
F8
20
20
20
20
20
20
ENDCHAR
STARTCHAR U
ENCODING 85
SWIDTH 575 0
DWIDTH 6 0
BBX 5 7 3 3
BITMAP
88
88
88
88
88
88
70
ENDCHAR
STARTCHAR V
ENCODING 86
SWIDTH 575 0
DWIDTH 6 0
BBX 5 7 3 3
BITMAP
88
88
88
50
50
20
20
ENDCHAR
STARTCHAR W
ENCODING 87
SWIDTH 575 0
DWIDTH 6 0
BBX 5 7 3 3
BITMAP
88
88
88
A8
A8
D8
88
ENDCHAR
STARTCHAR X
ENCODING 88
SWIDTH 575 0
DWIDTH 6 0
BBX 5 7 3 3
BITMAP
88
88
50
20
50
88
88
ENDCHAR
STARTCHAR Y
ENCODING 89
SWIDTH 575 0
DWIDTH 6 0
BBX 5 7 3 3
BITMAP
88
88
50
20
20
20
20
ENDCHAR
STARTCHAR Z
ENCODING 90
SWIDTH 575 0
DWIDTH 6 0
BBX 5 7 3 3
BITMAP
F8
08
10
20
40
80
F8
ENDCHAR
STARTCHAR bracketleft
ENCODING 91
SWIDTH 575 0
DWIDTH 4 0
BBX 3 7 4 3
BITMAP
E0
80
80
80
80
80
E0
ENDCHAR
STARTCHAR backslash
ENCODING 92
SWIDTH 575 0
DWIDTH 6 0
BBX 5 7 3 3
BITMAP
80
80
40
20
10
08
08
ENDCHAR
STARTCHAR bracketright
ENCODING 93
SWIDTH 575 0
DWIDTH 4 0
BBX 3 7 5 3
BITMAP
E0
20
20
20
20
20
E0
ENDCHAR
STARTCHAR asciicircum
ENCODING 94
SWIDTH 575 0
DWIDTH 6 0
BBX 5 3 3 7
BITMAP
20
50
88
ENDCHAR
STARTCHAR underscore
ENCODING 95
SWIDTH 575 0
DWIDTH 6 0
BBX 5 1 3 3
BITMAP
F8
ENDCHAR
STARTCHAR grave
ENCODING 96
SWIDTH 575 0
DWIDTH 3 0
BBX 2 4 3 6
BITMAP
C0
C0
80
40
ENDCHAR
STARTCHAR a
ENCODING 97
SWIDTH 575 0
DWIDTH 6 0
BBX 5 5 3 3
BITMAP
70
08
78
88
70
ENDCHAR
STARTCHAR b
ENCODING 98
SWIDTH 575 0
DWIDTH 6 0
BBX 5 7 3 3
BITMAP
80
80
B0
C8
88
C8
B0
ENDCHAR
STARTCHAR c
ENCODING 99
SWIDTH 575 0
DWIDTH 6 0
BBX 5 5 3 3
BITMAP
78
80
80
80
78
ENDCHAR
STARTCHAR d
ENCODING 100
SWIDTH 575 0
DWIDTH 6 0
BBX 5 7 3 3
BITMAP
08
08
68
98
88
98
68
ENDCHAR
STARTCHAR e
ENCODING 101
SWIDTH 575 0
DWIDTH 6 0
BBX 5 5 3 3
BITMAP
70
88
F8
80
70
ENDCHAR
STARTCHAR f
ENCODING 102
SWIDTH 575 0
DWIDTH 6 0
BBX 5 7 3 3
BITMAP
30
48
40
F0
40
40
40
ENDCHAR
STARTCHAR g
ENCODING 103
SWIDTH 575 0
DWIDTH 6 0
BBX 5 7 3 1
BITMAP
70
88
88
88
78
08
70
ENDCHAR
STARTCHAR h
ENCODING 104
SWIDTH 575 0
DWIDTH 6 0
BBX 5 7 3 3
BITMAP
80
80
B0
C8
88
88
88
ENDCHAR
STARTCHAR i
ENCODING 105
SWIDTH 575 0
DWIDTH 6 0
BBX 3 7 4 3
BITMAP
40
00
C0
40
40
40
E0
ENDCHAR
STARTCHAR j
ENCODING 106
SWIDTH 575 0
DWIDTH 6 0
BBX 4 8 3 2
BITMAP
10
00
30
10
10
10
90
60
ENDCHAR
STARTCHAR k
ENCODING 107
SWIDTH 575 0
DWIDTH 6 0
BBX 4 7 3 3
BITMAP
80
80
90
A0
C0
A0
90
ENDCHAR
STARTCHAR l
ENCODING 108
SWIDTH 575 0
DWIDTH 6 0
BBX 3 7 4 3
BITMAP
C0
40
40
40
40
40
E0
ENDCHAR
STARTCHAR m
ENCODING 109
SWIDTH 575 0
DWIDTH 6 0
BBX 5 5 3 3
BITMAP
D0
A8
A8
A8
A8
ENDCHAR
STARTCHAR n
ENCODING 110
SWIDTH 575 0
DWIDTH 6 0
BBX 5 5 3 3
BITMAP
B0
C8
88
88
88
ENDCHAR
STARTCHAR o
ENCODING 111
SWIDTH 575 0
DWIDTH 6 0
BBX 5 5 3 3
BITMAP
70
88
88
88
70
ENDCHAR
STARTCHAR p
ENCODING 112
SWIDTH 575 0
DWIDTH 6 0
BBX 5 7 3 1
BITMAP
70
88
88
88
F0
80
80
ENDCHAR
STARTCHAR q
ENCODING 113
SWIDTH 575 0
DWIDTH 6 0
BBX 5 7 3 1
BITMAP
70
88
88
88
78
08
08
ENDCHAR
STARTCHAR r
ENCODING 114
SWIDTH 575 0
DWIDTH 6 0
BBX 5 5 3 3
BITMAP
B0
C8
80
80
80
ENDCHAR
STARTCHAR s
ENCODING 115
SWIDTH 575 0
DWIDTH 6 0
BBX 5 5 3 3
BITMAP
78
80
70
08
F0
ENDCHAR
STARTCHAR t
ENCODING 116
SWIDTH 575 0
DWIDTH 6 0
BBX 4 7 4 3
BITMAP
40
40
F0
40
40
40
70
ENDCHAR
STARTCHAR u
ENCODING 117
SWIDTH 575 0
DWIDTH 6 0
BBX 5 5 3 3
BITMAP
88
88
88
98
68
ENDCHAR
STARTCHAR v
ENCODING 118
SWIDTH 575 0
DWIDTH 6 0
BBX 5 5 3 3
BITMAP
88
88
88
50
20
ENDCHAR
STARTCHAR w
ENCODING 119
SWIDTH 575 0
DWIDTH 6 0
BBX 5 5 3 3
BITMAP
88
88
A8
A8
50
ENDCHAR
STARTCHAR x
ENCODING 120
SWIDTH 575 0
DWIDTH 6 0
BBX 5 5 3 3
BITMAP
88
50
20
50
88
ENDCHAR
STARTCHAR y
ENCODING 121
SWIDTH 575 0
DWIDTH 6 0
BBX 5 7 3 1
BITMAP
88
88
88
88
78
08
70
ENDCHAR
STARTCHAR z
ENCODING 122
SWIDTH 575 0
DWIDTH 6 0
BBX 5 5 3 3
BITMAP
F8
10
20
40
F8
ENDCHAR
STARTCHAR braceleft
ENCODING 123
SWIDTH 575 0
DWIDTH 6 0
BBX 3 7 4 3
BITMAP
20
40
40
80
40
40
20
ENDCHAR
STARTCHAR bar
ENCODING 124
SWIDTH 575 0
DWIDTH 6 0
BBX 1 7 5 3
BITMAP
80
80
80
00
80
80
80
ENDCHAR
STARTCHAR braceright
ENCODING 125
SWIDTH 575 0
DWIDTH 6 0
BBX 3 7 4 3
BITMAP
80
40
40
20
40
40
80
ENDCHAR
STARTCHAR asciitilde
ENCODING 126
SWIDTH 575 0
DWIDTH 6 0
BBX 5 3 3 7
BITMAP
40
A8
10
ENDCHAR
STARTCHAR uni404
ENCODING 1028
SWIDTH 1000 0
DWIDTH 6 0
BBX 5 7 7 3
BITMAP
70
88
80
F0
80
88
70
ENDCHAR
STARTCHAR uni406
ENCODING 1030
SWIDTH 1000 0
DWIDTH 6 0
BBX 1 7 8 3
BITMAP
80
80
80
80
80
80
80
ENDCHAR
STARTCHAR uni407
ENCODING 1031
SWIDTH 1000 0
DWIDTH 5 0
BBX 3 7 7 3
BITMAP
A0
00
40
40
40
40
40
ENDCHAR
STARTCHAR uni0410
ENCODING 1040
SWIDTH 575 0
DWIDTH 6 0
BBX 5 7 3 3
BITMAP
20
50
88
88
F8
88
88
ENDCHAR
STARTCHAR uni0411
ENCODING 1041
SWIDTH 575 0
DWIDTH 6 0
BBX 5 7 3 3
BITMAP
F8
80
80
F0
88
88
F0
ENDCHAR
STARTCHAR uni0412
ENCODING 1042
SWIDTH 575 0
DWIDTH 6 0
BBX 5 7 3 3
BITMAP
F0
88
88
F0
88
88
F0
ENDCHAR
STARTCHAR uni0413
ENCODING 1043
SWIDTH 575 0
DWIDTH 6 0
BBX 5 7 3 3
BITMAP
F8
80
80
80
80
80
80
ENDCHAR
STARTCHAR uni0414
ENCODING 1044
SWIDTH 575 0
DWIDTH 6 0
BBX 6 7 2 3
BITMAP
78
48
48
48
48
FC
84
ENDCHAR
STARTCHAR uni0415
ENCODING 1045
SWIDTH 575 0
DWIDTH 6 0
BBX 4 7 3 3
BITMAP
F0
80
80
F0
80
80
F0
ENDCHAR
STARTCHAR uni0416
ENCODING 1046
SWIDTH 575 0
DWIDTH 6 0
BBX 7 7 2 3
BITMAP
92
54
54
38
54
54
92
ENDCHAR
STARTCHAR uni0417
ENCODING 1047
SWIDTH 575 0
DWIDTH 6 0
BBX 5 7 3 3
BITMAP
70
88
08
10
08
88
70
ENDCHAR
STARTCHAR uni0418
ENCODING 1048
SWIDTH 575 0
DWIDTH 6 0
BBX 5 7 3 3
BITMAP
88
88
98
A8
C8
88
88
ENDCHAR
STARTCHAR uni0419
ENCODING 1049
SWIDTH 575 0
DWIDTH 6 0
BBX 5 8 3 3
BITMAP
50
20
88
98
A8
C8
88
88
ENDCHAR
STARTCHAR uni041A
ENCODING 1050
SWIDTH 575 0
DWIDTH 6 0
BBX 4 7 4 3
BITMAP
90
A0
A0
C0
A0
A0
90
ENDCHAR
STARTCHAR uni041B
ENCODING 1051
SWIDTH 575 0
DWIDTH 6 0
BBX 5 7 3 3
BITMAP
38
48
48
48
48
48
88
ENDCHAR
STARTCHAR uni041C
ENCODING 1052
SWIDTH 575 0
DWIDTH 6 0
BBX 5 7 3 3
BITMAP
88
D8
A8
A8
88
88
88
ENDCHAR
STARTCHAR uni041D
ENCODING 1053
SWIDTH 575 0
DWIDTH 6 0
BBX 5 7 3 3
BITMAP
88
88
88
F8
88
88
88
ENDCHAR
STARTCHAR uni041E
ENCODING 1054
SWIDTH 575 0
DWIDTH 6 0
BBX 5 7 3 3
BITMAP
70
88
88
88
88
88
70
ENDCHAR
STARTCHAR uni041F
ENCODING 1055
SWIDTH 575 0
DWIDTH 6 0
BBX 5 7 3 3
BITMAP
F8
88
88
88
88
88
88
ENDCHAR
STARTCHAR uni0420
ENCODING 1056
SWIDTH 575 0
DWIDTH 6 0
BBX 5 7 3 3
BITMAP
F0
88
88
F0
80
80
80
ENDCHAR
STARTCHAR uni0421
ENCODING 1057
SWIDTH 575 0
DWIDTH 6 0
BBX 5 7 3 3
BITMAP
70
88
80
80
80
88
70
ENDCHAR
STARTCHAR uni0422
ENCODING 1058
SWIDTH 575 0
DWIDTH 6 0
BBX 5 7 3 3
BITMAP
F8
20
20
20
20
20
20
ENDCHAR
STARTCHAR uni0423
ENCODING 1059
SWIDTH 575 0
DWIDTH 6 0
BBX 5 7 3 3
BITMAP
88
88
88
78
08
08
70
ENDCHAR
STARTCHAR uni0424
ENCODING 1060
SWIDTH 575 0
DWIDTH 6 0
BBX 5 7 3 3
BITMAP
70
A8
A8
A8
70
20
20
ENDCHAR
STARTCHAR uni0425
ENCODING 1061
SWIDTH 575 0
DWIDTH 6 0
BBX 5 7 3 3
BITMAP
88
88
50
20
50
88
88
ENDCHAR
STARTCHAR uni0426
ENCODING 1062
SWIDTH 575 0
DWIDTH 6 0
BBX 6 8 2 2
BITMAP
88
88
88
88
88
88
FC
04
ENDCHAR
STARTCHAR uni0427
ENCODING 1063
SWIDTH 575 0
DWIDTH 6 0
BBX 5 7 3 3
BITMAP
88
88
88
78
08
08
08
ENDCHAR
STARTCHAR uni0428
ENCODING 1064
SWIDTH 575 0
DWIDTH 6 0
BBX 5 7 2 3
BITMAP
A8
A8
A8
A8
A8
A8
F8
ENDCHAR
STARTCHAR uni0429
ENCODING 1065
SWIDTH 575 0
DWIDTH 6 0
BBX 6 8 2 2
BITMAP
A8
A8
A8
A8
A8
A8
FC
04
ENDCHAR
STARTCHAR uni042A
ENCODING 1066
SWIDTH 575 0
DWIDTH 6 0
BBX 6 7 2 3
BITMAP
C0
40
40
78
44
44
78
ENDCHAR
STARTCHAR uni042B
ENCODING 1067
SWIDTH 575 0
DWIDTH 6 0
BBX 7 7 3 3
BITMAP
82
82
82
F2
8A
8A
F2
ENDCHAR
STARTCHAR uni042C
ENCODING 1068
SWIDTH 575 0
DWIDTH 6 0
BBX 5 7 3 3
BITMAP
80
80
80
F0
88
88
F0
ENDCHAR
STARTCHAR uni042D
ENCODING 1069
SWIDTH 575 0
DWIDTH 6 0
BBX 5 7 3 3
BITMAP
70
88
08
78
08
88
70
ENDCHAR
STARTCHAR uni042E
ENCODING 1070
SWIDTH 575 0
DWIDTH 6 0
BBX 6 7 2 3
BITMAP
98
A4
A4
E4
A4
A4
98
ENDCHAR
STARTCHAR uni042F
ENCODING 1071
SWIDTH 575 0
DWIDTH 6 0
BBX 5 7 3 3
BITMAP
78
88
88
78
28
48
88
ENDCHAR
STARTCHAR uni0430
ENCODING 1072
SWIDTH 575 0
DWIDTH 6 0
BBX 5 5 3 3
BITMAP
70
08
78
88
70
ENDCHAR
STARTCHAR uni0431
ENCODING 1073
SWIDTH 575 0
DWIDTH 6 0
BBX 5 8 3 3
BITMAP
70
80
40
70
88
88
88
70
ENDCHAR
STARTCHAR uni0432
ENCODING 1074
SWIDTH 575 0
DWIDTH 6 0
BBX 5 5 3 3
BITMAP
70
88
F8
88
F0
ENDCHAR
STARTCHAR uni0433
ENCODING 1075
SWIDTH 575 0
DWIDTH 6 0
BBX 4 5 4 3
BITMAP
F0
80
80
80
80
ENDCHAR
STARTCHAR uni0434
ENCODING 1076
SWIDTH 575 0
DWIDTH 6 0
BBX 5 5 3 3
BITMAP
70
50
50
F8
88
ENDCHAR
STARTCHAR uni0435
ENCODING 1077
SWIDTH 575 0
DWIDTH 5 0
BBX 5 5 2 3
BITMAP
70
88
F8
80
70
ENDCHAR
STARTCHAR uni0436
ENCODING 1078
SWIDTH 575 0
DWIDTH 6 0
BBX 5 5 3 3
BITMAP
A8
A8
70
A8
A8
ENDCHAR
STARTCHAR uni0437
ENCODING 1079
SWIDTH 575 0
DWIDTH 6 0
BBX 5 5 3 3
BITMAP
70
88
30
88
70
ENDCHAR
STARTCHAR uni0438
ENCODING 1080
SWIDTH 575 0
DWIDTH 6 0
BBX 5 5 3 3
BITMAP
88
98
A8
C8
88
ENDCHAR
STARTCHAR uni0439
ENCODING 1081
SWIDTH 575 0
DWIDTH 6 0
BBX 5 6 3 3
BITMAP
20
88
98
A8
C8
88
ENDCHAR
STARTCHAR uni043A
ENCODING 1082
SWIDTH 575 0
DWIDTH 6 0
BBX 4 5 4 3
BITMAP
90
A0
C0
A0
90
ENDCHAR
STARTCHAR uni043B
ENCODING 1083
SWIDTH 575 0
DWIDTH 6 0
BBX 5 5 3 3
BITMAP
38
48
48
48
88
ENDCHAR
STARTCHAR uni043C
ENCODING 1084
SWIDTH 575 0
DWIDTH 6 0
BBX 5 5 3 3
BITMAP
88
D8
A8
88
88
ENDCHAR
STARTCHAR uni043D
ENCODING 1085
SWIDTH 575 0
DWIDTH 6 0
BBX 5 5 3 3
BITMAP
88
88
F8
88
88
ENDCHAR
STARTCHAR uni043E
ENCODING 1086
SWIDTH 575 0
DWIDTH 6 0
BBX 5 5 3 3
BITMAP
70
88
88
88
70
ENDCHAR
STARTCHAR uni043F
ENCODING 1087
SWIDTH 575 0
DWIDTH 6 0
BBX 5 5 3 3
BITMAP
F8
88
88
88
88
ENDCHAR
STARTCHAR uni0440
ENCODING 1088
SWIDTH 575 0
DWIDTH 6 0
BBX 4 6 3 2
BITMAP
60
90
90
E0
80
80
ENDCHAR
STARTCHAR uni0441
ENCODING 1089
SWIDTH 575 0
DWIDTH 6 0
BBX 5 5 3 3
BITMAP
70
88
80
88
70
ENDCHAR
STARTCHAR uni0442
ENCODING 1090
SWIDTH 575 0
DWIDTH 6 0
BBX 5 5 3 3
BITMAP
F8
20
20
20
20
ENDCHAR
STARTCHAR uni0443
ENCODING 1091
SWIDTH 575 0
DWIDTH 6 0
BBX 5 7 3 1
BITMAP
88
88
88
88
78
08
70
ENDCHAR
STARTCHAR uni0444
ENCODING 1092
SWIDTH 575 0
DWIDTH 6 0
BBX 5 5 3 3
BITMAP
70
A8
A8
70
20
ENDCHAR
STARTCHAR uni0445
ENCODING 1093
SWIDTH 575 0
DWIDTH 6 0
BBX 5 5 3 3
BITMAP
88
50
20
50
88
ENDCHAR
STARTCHAR uni0446
ENCODING 1094
SWIDTH 575 0
DWIDTH 6 0
BBX 5 6 3 2
BITMAP
90
90
90
90
F8
08
ENDCHAR
STARTCHAR uni0447
ENCODING 1095
SWIDTH 575 0
DWIDTH 6 0
BBX 5 5 3 3
BITMAP
88
88
78
08
08
ENDCHAR
STARTCHAR uni0448
ENCODING 1096
SWIDTH 575 0
DWIDTH 6 0
BBX 5 5 3 3
BITMAP
A8
A8
A8
A8
F8
ENDCHAR
STARTCHAR uni0449
ENCODING 1097
SWIDTH 575 0
DWIDTH 6 0
BBX 5 6 3 2
BITMAP
A8
A8
A8
A8
FC
04
ENDCHAR
STARTCHAR uni044A
ENCODING 1098
SWIDTH 575 0
DWIDTH 6 0
BBX 5 5 3 3
BITMAP
C0
40
70
48
70
ENDCHAR
STARTCHAR uni044B
ENCODING 1099
SWIDTH 1000 0
DWIDTH 6 0
BBX 6 5 3 3
BITMAP
84
84
E4
94
E4
ENDCHAR
STARTCHAR uni044C
ENCODING 1100
SWIDTH 575 0
DWIDTH 6 0
BBX 5 5 3 3
BITMAP
80
80
F0
88
F0
ENDCHAR
STARTCHAR uni044D
ENCODING 1101
SWIDTH 575 0
DWIDTH 6 0
BBX 5 5 3 3
BITMAP
70
88
38
88
70
ENDCHAR
STARTCHAR uni044E
ENCODING 1102
SWIDTH 1000 0
DWIDTH 6 0
BBX 6 5 5 3
BITMAP
98
A4
E4
A4
98
ENDCHAR
STARTCHAR uni044F
ENCODING 1103
SWIDTH 575 0
DWIDTH 6 0
BBX 5 5 3 3
BITMAP
78
88
78
88
88
ENDCHAR
STARTCHAR uni454
ENCODING 1108
SWIDTH 1000 0
DWIDTH 6 0
BBX 5 5 1 3
BITMAP
70
88
E0
88
70
ENDCHAR
STARTCHAR uni456
ENCODING 1110
SWIDTH 1000 0
DWIDTH 2 0
BBX 1 5 3 3
BITMAP
80
00
80
80
80
ENDCHAR
STARTCHAR uni457
ENCODING 1111
SWIDTH 1000 0
DWIDTH 3 0
BBX 3 5 7 3
BITMAP
A0
00
40
40
40
ENDCHAR
STARTCHAR uni0490
ENCODING 1168
SWIDTH 575 0
DWIDTH 6 0
BBX 5 8 3 3
BITMAP
08
F8
80
80
80
80
80
80
ENDCHAR
STARTCHAR uni0491
ENCODING 1169
SWIDTH 575 0
DWIDTH 6 0
BBX 4 6 4 3
BITMAP
10
F0
80
80
80
80
ENDCHAR
ENDFONT
